<svg viewBox="0 0 330 200" xmlns="http://www.w3.org/2000/svg"><g><g><g><g><g><line x1="40" y1="178" x2="35" y2="178" style="visibility: inherit;" fill="rgb(0, 0, 0)" stroke="rgb(204, 204, 204)" stroke-width="1px"></line><line x1="40" y1="161.8181818181818" x2="35" y2="161.8181818181818" style="visibility: inherit;" fill="rgb(0, 0, 0)" stroke="rgb(204, 204, 204)" stroke-width="1px"></line><line x1="40" y1="145.63636363636365" x2="35" y2="145.63636363636365" style="visibility: inherit;" fill="rgb(0, 0, 0)" stroke="rgb(204, 204, 204)" stroke-width="1px"></line><line x1="40" y1="129.45454545454544" x2="35" y2="129.45454545454544" style="visibility: inherit;" fill="rgb(0, 0, 0)" stroke="rgb(204, 204, 204)" stroke-width="1px"></line><line x1="40" y1="113.27272727272727" x2="35" y2="113.27272727272727" style="visibility: inherit;" fill="rgb(0, 0, 0)" stroke="rgb(204, 204, 204)" stroke-width="1px"></line><line x1="40" y1="97.0909090909091" x2="35" y2="97.0909090909091" style="visibility: inherit;" fill="rgb(0, 0, 0)" stroke="rgb(204, 204, 204)" stroke-width="1px"></line><line x1="40" y1="80.90909090909089" x2="35" y2="80.90909090909089" style="visibility: inherit;" fill="rgb(0, 0, 0)" stroke="rgb(204, 204, 204)" stroke-width="1px"></line><line x1="40" y1="64.72727272727275" x2="35" y2="64.72727272727275" style="visibility: inherit;" fill="rgb(0, 0, 0)" stroke="rgb(204, 204, 204)" stroke-width="1px"></line><line x1="40" y1="48.54545454545453" x2="35" y2="48.54545454545453" style="visibility: inherit;" fill="rgb(0, 0, 0)" stroke="rgb(204, 204, 204)" stroke-width="1px"></line><line x1="40" y1="32.3636363636364" x2="35" y2="32.3636363636364" style="visibility: inherit;" fill="rgb(0, 0, 0)" stroke="rgb(204, 204, 204)" stroke-width="1px"></line><line x1="40" y1="16.181818181818187" x2="35" y2="16.181818181818187" style="visibility: inherit;" fill="rgb(0, 0, 0)" stroke="rgb(204, 204, 204)" stroke-width="1px"></line><line x1="40" y1="0" x2="35" y2="0" style="visibility: inherit;" fill="rgb(0, 0, 0)" stroke="rgb(204, 204, 204)" stroke-width="1px"></line></g><g transform="translate(30, 0)"><text x="0" y="178" dx="0em" dy="0.3em" style="text-anchor: end; visibility: hidden; font-family: &quot;Helvetica Neue&quot;, sans-serif; font-size: 12px; font-weight: 200;" fill="rgb(50, 49, 63)" stroke="none" stroke-width="1px">0.5</text><text x="0" y="161.8181818181818" dx="0em" dy="0.3em" style="text-anchor: end; visibility: inherit; font-family: &quot;Helvetica Neue&quot;, sans-serif; font-size: 12px; font-weight: 200;" fill="rgb(50, 49, 63)" stroke="none" stroke-width="1px">0.6</text><text x="0" y="145.63636363636365" dx="0em" dy="0.3em" style="text-anchor: end; visibility: hidden; font-family: &quot;Helvetica Neue&quot;, sans-serif; font-size: 12px; font-weight: 200;" fill="rgb(50, 49, 63)" stroke="none" stroke-width="1px">0.7</text><text x="0" y="129.45454545454544" dx="0em" dy="0.3em" style="text-anchor: end; visibility: inherit; font-family: &quot;Helvetica Neue&quot;, sans-serif; font-size: 12px; font-weight: 200;" fill="rgb(50, 49, 63)" stroke="none" stroke-width="1px">0.8</text><text x="0" y="113.27272727272727" dx="0em" dy="0.3em" style="text-anchor: end; visibility: hidden; font-family: &quot;Helvetica Neue&quot;, sans-serif; font-size: 12px; font-weight: 200;" fill="rgb(50, 49, 63)" stroke="none" stroke-width="1px">0.9</text><text x="0" y="97.0909090909091" dx="0em" dy="0.3em" style="text-anchor: end; visibility: inherit; font-family: &quot;Helvetica Neue&quot;, sans-serif; font-size: 12px; font-weight: 200;" fill="rgb(50, 49, 63)" stroke="none" stroke-width="1px">1</text><text x="0" y="80.90909090909089" dx="0em" dy="0.3em" style="text-anchor: end; visibility: hidden; font-family: &quot;Helvetica Neue&quot;, sans-serif; font-size: 12px; font-weight: 200;" fill="rgb(50, 49, 63)" stroke="none" stroke-width="1px">1.1</text><text x="0" y="64.72727272727275" dx="0em" dy="0.3em" style="text-anchor: end; visibility: inherit; font-family: &quot;Helvetica Neue&quot;, sans-serif; font-size: 12px; font-weight: 200;" fill="rgb(50, 49, 63)" stroke="none" stroke-width="1px">1.2</text><text x="0" y="48.54545454545453" dx="0em" dy="0.3em" style="text-anchor: end; visibility: hidden; font-family: &quot;Helvetica Neue&quot;, sans-serif; font-size: 12px; font-weight: 200;" fill="rgb(50, 49, 63)" stroke="none" stroke-width="1px">1.3</text><text x="0" y="32.3636363636364" dx="0em" dy="0.3em" style="text-anchor: end; visibility: inherit; font-family: &quot;Helvetica Neue&quot;, sans-serif; font-size: 12px; font-weight: 200;" fill="rgb(50, 49, 63)" stroke="none" stroke-width="1px">1.4</text><text x="0" y="16.181818181818187" dx="0em" dy="0.3em" style="text-anchor: end; visibility: hidden; font-family: &quot;Helvetica Neue&quot;, sans-serif; font-size: 12px; font-weight: 200;" fill="rgb(50, 49, 63)" stroke="none" stroke-width="1px">1.5</text><text x="0" y="0" dx="0em" dy="0.3em" style="text-anchor: end; visibility: hidden; font-family: &quot;Helvetica Neue&quot;, sans-serif; font-size: 12px; font-weight: 200;" fill="rgb(50, 49, 63)" stroke="none" stroke-width="1px">1.6</text></g><line x1="40" y1="0" x2="40" y2="178" fill="rgb(0, 0, 0)" stroke="rgb(204, 204, 204)" stroke-width="1px"></line></g></g><g transform="translate(40, 0)" clip-path="url(#clip_0)"><clipPath id="clip_0"><rect width="290" height="178"></rect></clipPath><g><g><g><line x1="0" y1="0" x2="0" y2="178" fill="rgb(0, 0, 0)" stroke="rgb(60, 60, 60)" stroke-width="1px" opacity="0.25"></line><line x1="24.166666666666664" y1="0" x2="24.166666666666664" y2="178" fill="rgb(0, 0, 0)" stroke="rgb(60, 60, 60)" stroke-width="1px" opacity="0.25"></line><line x1="48.33333333333333" y1="0" x2="48.33333333333333" y2="178" fill="rgb(0, 0, 0)" stroke="rgb(60, 60, 60)" stroke-width="1px" opacity="0.25"></line><line x1="72.5" y1="0" x2="72.5" y2="178" fill="rgb(0, 0, 0)" stroke="rgb(60, 60, 60)" stroke-width="1px" opacity="0.25"></line><line x1="96.66666666666666" y1="0" x2="96.66666666666666" y2="178" fill="rgb(0, 0, 0)" stroke="rgb(60, 60, 60)" stroke-width="1px" opacity="0.25"></line><line x1="120.83333333333334" y1="0" x2="120.83333333333334" y2="178" fill="rgb(0, 0, 0)" stroke="rgb(60, 60, 60)" stroke-width="1px" opacity="0.25"></line><line x1="145" y1="0" x2="145" y2="178" fill="rgb(0, 0, 0)" stroke="rgb(60, 60, 60)" stroke-width="1px" opacity="0.25"></line><line x1="169.16666666666669" y1="0" x2="169.16666666666669" y2="178" fill="rgb(0, 0, 0)" stroke="rgb(60, 60, 60)" stroke-width="1px" opacity="0.25"></line><line x1="193.33333333333331" y1="0" x2="193.33333333333331" y2="178" fill="rgb(0, 0, 0)" stroke="rgb(60, 60, 60)" stroke-width="1px" opacity="0.25"></line><line x1="217.5" y1="0" x2="217.5" y2="178" fill="rgb(0, 0, 0)" stroke="rgb(60, 60, 60)" stroke-width="1px" opacity="0.25"></line><line x1="241.66666666666669" y1="0" x2="241.66666666666669" y2="178" fill="rgb(0, 0, 0)" stroke="rgb(60, 60, 60)" stroke-width="1px" opacity="0.25"></line><line x1="265.8333333333333" y1="0" x2="265.8333333333333" y2="178" fill="rgb(0, 0, 0)" stroke="rgb(60, 60, 60)" stroke-width="1px" opacity="0.25"></line><line x1="290" y1="0" x2="290" y2="178" fill="rgb(0, 0, 0)" stroke="rgb(60, 60, 60)" stroke-width="1px" opacity="0.25"></line></g><g><line x1="0" y1="178" x2="290" y2="178" fill="rgb(0, 0, 0)" stroke="rgb(60, 60, 60)" stroke-width="1px" opacity="0.25"></line><line x1="0" y1="161.8181818181818" x2="290" y2="161.8181818181818" fill="rgb(0, 0, 0)" stroke="rgb(60, 60, 60)" stroke-width="1px" opacity="0.25"></line><line x1="0" y1="145.63636363636365" x2="290" y2="145.63636363636365" fill="rgb(0, 0, 0)" stroke="rgb(60, 60, 60)" stroke-width="1px" opacity="0.25"></line><line x1="0" y1="129.45454545454544" x2="290" y2="129.45454545454544" fill="rgb(0, 0, 0)" stroke="rgb(60, 60, 60)" stroke-width="1px" opacity="0.25"></line><line x1="0" y1="113.27272727272727" x2="290" y2="113.27272727272727" fill="rgb(0, 0, 0)" stroke="rgb(60, 60, 60)" stroke-width="1px" opacity="0.25"></line><line x1="0" y1="97.0909090909091" x2="290" y2="97.0909090909091" fill="rgb(0, 0, 0)" stroke="rgb(60, 60, 60)" stroke-width="1px" opacity="0.25"></line><line x1="0" y1="80.90909090909089" x2="290" y2="80.90909090909089" fill="rgb(0, 0, 0)" stroke="rgb(60, 60, 60)" stroke-width="1px" opacity="0.25"></line><line x1="0" y1="64.72727272727275" x2="290" y2="64.72727272727275" fill="rgb(0, 0, 0)" stroke="rgb(60, 60, 60)" stroke-width="1px" opacity="0.25"></line><line x1="0" y1="48.54545454545453" x2="290" y2="48.54545454545453" fill="rgb(0, 0, 0)" stroke="rgb(60, 60, 60)" stroke-width="1px" opacity="0.25"></line><line x1="0" y1="32.3636363636364" x2="290" y2="32.3636363636364" fill="rgb(0, 0, 0)" stroke="rgb(60, 60, 60)" stroke-width="1px" opacity="0.25"></line><line x1="0" y1="16.181818181818187" x2="290" y2="16.181818181818187" fill="rgb(0, 0, 0)" stroke="rgb(60, 60, 60)" stroke-width="1px" opacity="0.25"></line><line x1="0" y1="0" x2="290" y2="0" fill="rgb(0, 0, 0)" stroke="rgb(60, 60, 60)" stroke-width="1px" opacity="0.25"></line></g></g></g><g><g><line x1="0" y1="258.9090909090909" x2="290" y2="258.9090909090909" fill="rgb(0, 0, 0)" stroke="rgb(153, 153, 153)" stroke-width="1.5px"></line></g></g><g><g><line x1="24.166666666666664" y1="0" x2="24.166666666666664" y2="178" fill="rgb(0, 0, 0)" stroke="rgb(153, 153, 153)" stroke-width="1.5px"></line></g></g><g><g><g><g><g><path stroke="rgb(0, 119, 187)" stroke-width="2px" d="M24.166666666666664,20.399588498202235L29,33.48252422701225L33.833333333333336,41.81437214495742L38.666666666666664,47.461567401089155L43.5,51.37318369585836L48.33333333333333,54.06487511735841L53.166666666666664,55.85229948068479L58,56.934154324137054L62.833333333333336,57.69818236367L67.66666666666667,57.73388938239607L72.5,57.55461593244347L77.33333333333333,57.02065022537222L82.16666666666667,56.3452790135764L87,55.49974863968808L91.83333333333333,54.61996122788031L96.66666666666666,53.737143395951335L101.5,52.71253328665351L106.33333333333333,51.95911336616892L111.16666666666667,51.087182777998294L116,49.955444839098476L120.83333333333334,48.92490655092507L125.66666666666667,47.82721407698881L130.5,46.878596223919686L135.33333333333334,45.59845077062414L140.16666666666666,44.44225455597933L145,43.09078724574729L149.83333333333334,41.91300005948054L154.66666666666666,40.7515803463597L159.5,39.85347006803559L164.33333333333334,38.67484733520689L169.16666666666669,37.58777972868256L174,36.27214817767117L178.83333333333334,35.292235840373024L183.66666666666666,34.379556718553005L188.5,33.211614019404806L193.33333333333331,32.22821566878926L198.16666666666666,31.115920677459854L203,30.040887102635025L207.83333333333334,28.92714522268946L212.66666666666666,27.87372820553651L217.5,26.96722431259286L222.33333333333334,25.98287200232636L227.16666666666666,24.881339571538945L232,23.91183043800686L236.83333333333334,22.8696748722206L241.66666666666669,21.641469236832194L246.5,20.527321540337567L251.33333333333334,19.54518149076989L256.1666666666667,18.586528127597745L261,17.717383861387134" style="fill: none;" fill="none"></path></g><g><path stroke="rgb(255, 112, 67)" stroke-width="2px" d="M24.166666666666664,-57.72862278331408L29,2.2951477657665293L33.833333333333336,32.52819454869004L38.666666666666664,52.5954556563959L43.5,67.58148241374002L48.33333333333333,79.31188755906803L53.166666666666664,88.96437640487811L58,96.89753995532979L62.833333333333336,103.55071078324237L67.66666666666667,109.35270204336774L72.5,114.22539679248536L77.33333333333333,118.68637888441452L82.16666666666667,122.42012299875836L87,126.08501247484526L91.83333333333333,129.37184634314337L96.66666666666666,132.17985700780667L101.5,134.60691734961296L106.33333333333333,136.92939544968806L111.16666666666667,139.21794518185106L116,141.10385844399713L120.83333333333334,142.66001900466074L125.66666666666667,144.52385750179812L130.5,146.2114233871568L135.33333333333334,147.59518891766893L140.16666666666666,149.06177653996923L145,150.33565291365449L149.83333333333334,151.87016373604985L154.66666666666666,152.78467319849133L159.5,153.51898918270865L164.33333333333334,154.83111526437932L169.16666666666669,155.77203743397328L174,156.61901894294795L178.83333333333334,157.3499945458159L183.66666666666666,158.28232492289752L188.5,159.33319191685538L193.33333333333331,160.11952315299695L198.16666666666666,161.0138242364107L203,161.73420991580932L207.83333333333334,162.41473745307695L212.66666666666666,163.06165869377472L217.5,163.81936981563578L222.33333333333334,164.31790105298197L227.16666666666666,164.9375038266591L232,165.48783901248265L236.83333333333334,166.12072698862673L241.66666666666669,166.51982330763906L246.5,167.02917842993165L251.33333333333334,167.80532266348678L256.1666666666667,168.2609358452462L261,168.77241464338786" style="fill: none;" fill="none"></path></g></g></g></g><g opacity="0.2"><g><g><g><path stroke="rgb(0, 119, 187)" stroke-width="2px" d="M24.166666666666664,20.399588498202235L29,41.332285664298325L33.833333333333336,49.81294614618477L38.666666666666664,54.10266902230005L43.5,56.48018993030895L48.33333333333333,57.788453362204834L53.166666666666664,58.40834491903132L58,58.51150907169689L62.833333333333336,58.82497531717475L67.66666666666667,57.78691014376555L72.5,57.28733175451106L77.33333333333333,56.222607482563376L82.16666666666667,55.33442740006882L87,54.23310956087981L91.83333333333333,53.30131426724522L96.66666666666666,52.413539279590964L101.5,51.17605170336638L106.33333333333333,50.82917477867822L111.16666666666667,49.77941972559151L116,48.25794137607923L120.83333333333334,47.37915563583377L125.66666666666667,46.18071148612282L130.5,45.45568817312068L135.33333333333334,43.67824775522408L140.16666666666666,42.707968451760024L145,41.06359204378995L149.83333333333334,40.14632229371506L154.66666666666666,39.009452559731216L159.5,38.50630547783592L164.33333333333334,36.906913887370735L169.16666666666669,35.95717867937955L174,34.29870111292061L178.83333333333334,33.8223674514077L183.66666666666666,33.01053810119632L188.5,31.459700020876795L193.33333333333331,30.753118168224006L198.16666666666666,29.44747820767489L203,28.428336750377326L207.83333333333334,27.256532408974408L212.66666666666666,26.293602683327435L217.5,25.607468474995017L222.33333333333334,24.50634353811091L227.16666666666666,23.229040926153033L232,22.45756673812869L236.83333333333334,21.306441523812055L241.66666666666669,19.79916078394112L246.5,18.856099995699793L251.33333333333334,18.071971416473417L256.1666666666667,17.148548082871883L261,16.413667462088853" style="fill: none;" fill="none"></path></g><g><path stroke="rgb(255, 112, 67)" stroke-width="2px" d="M24.166666666666664,-57.72862278331408L29,38.30941009521487L33.833333333333336,61.55191946029663L38.666666666666664,76.19455471905796L43.5,87.14723894812845L48.33333333333333,95.53926082090898L53.166666666666664,102.76758989420804L58,108.46416857025841L62.833333333333336,113.36284544251183L67.66666666666667,117.96798287738454L72.5,121.49024393341759L77.33333333333333,125.35357555476102L82.16666666666667,128.0085478479212L87,131.57516678896818L91.83333333333333,134.2982335957614L96.66666666666666,136.389892578125L101.5,138.24648081172597L106.33333333333333,140.41252292286265L111.16666666666667,142.65042114257812L116,143.93255595727402L120.83333333333334,144.99417450211266L125.66666666666667,147.31955391710454L130.5,148.74273889715022L135.33333333333334,149.6708208214153L140.16666666666666,151.26164754954252L145,152.24646204168147L149.83333333333334,154.17192604325035L154.66666666666666,154.15643598816612L159.5,154.62046248262578L164.33333333333334,156.79930366169322L169.16666666666669,157.18342037634417L174,157.88949103788897L178.83333333333334,158.446457862854L183.66666666666666,159.68082042173907L188.5,160.9094923626293L193.33333333333331,161.29901998693293L198.16666666666666,162.35527584769508L203,162.81478842821988L207.83333333333334,163.435528755188L212.66666666666666,164.03204055265948L217.5,164.955936496908L222.33333333333334,165.0656979084015L227.16666666666666,165.86690798672763L232,166.31334179097956L236.83333333333334,167.07005895267832L241.66666666666669,167.11846778609535L246.5,167.79321111332285L251.33333333333334,168.96953901377591L256.1666666666667,168.94435561786997L261,169.53963284059003" style="fill: none;" fill="none"></path></g></g></g></g></g></g><g transform="translate(40, 178)" clip-path="url(#clip_1)"><clipPath id="clip_1"><rect width="290" height="22"></rect></clipPath><g><g><line x1="0" y1="0" x2="0" y2="5" style="visibility: inherit;" fill="rgb(0, 0, 0)" stroke="rgb(204, 204, 204)" stroke-width="1px"></line><line x1="24.166666666666664" y1="0" x2="24.166666666666664" y2="5" style="visibility: inherit;" fill="rgb(0, 0, 0)" stroke="rgb(204, 204, 204)" stroke-width="1px"></line><line x1="48.33333333333333" y1="0" x2="48.33333333333333" y2="5" style="visibility: inherit;" fill="rgb(0, 0, 0)" stroke="rgb(204, 204, 204)" stroke-width="1px"></line><line x1="72.5" y1="0" x2="72.5" y2="5" style="visibility: inherit;" fill="rgb(0, 0, 0)" stroke="rgb(204, 204, 204)" stroke-width="1px"></line><line x1="96.66666666666666" y1="0" x2="96.66666666666666" y2="5" style="visibility: inherit;" fill="rgb(0, 0, 0)" stroke="rgb(204, 204, 204)" stroke-width="1px"></line><line x1="120.83333333333334" y1="0" x2="120.83333333333334" y2="5" style="visibility: inherit;" fill="rgb(0, 0, 0)" stroke="rgb(204, 204, 204)" stroke-width="1px"></line><line x1="145" y1="0" x2="145" y2="5" style="visibility: inherit;" fill="rgb(0, 0, 0)" stroke="rgb(204, 204, 204)" stroke-width="1px"></line><line x1="169.16666666666669" y1="0" x2="169.16666666666669" y2="5" style="visibility: inherit;" fill="rgb(0, 0, 0)" stroke="rgb(204, 204, 204)" stroke-width="1px"></line><line x1="193.33333333333331" y1="0" x2="193.33333333333331" y2="5" style="visibility: inherit;" fill="rgb(0, 0, 0)" stroke="rgb(204, 204, 204)" stroke-width="1px"></line><line x1="217.5" y1="0" x2="217.5" y2="5" style="visibility: inherit;" fill="rgb(0, 0, 0)" stroke="rgb(204, 204, 204)" stroke-width="1px"></line><line x1="241.66666666666669" y1="0" x2="241.66666666666669" y2="5" style="visibility: inherit;" fill="rgb(0, 0, 0)" stroke="rgb(204, 204, 204)" stroke-width="1px"></line><line x1="265.8333333333333" y1="0" x2="265.8333333333333" y2="5" style="visibility: inherit;" fill="rgb(0, 0, 0)" stroke="rgb(204, 204, 204)" stroke-width="1px"></line><line x1="290" y1="0" x2="290" y2="5" style="visibility: inherit;" fill="rgb(0, 0, 0)" stroke="rgb(204, 204, 204)" stroke-width="1px"></line></g><g transform="translate(0, 8)"><text x="0" y="0" dx="0em" dy="0.95em" style="text-anchor: middle; visibility: hidden; font-family: &quot;Helvetica Neue&quot;, sans-serif; font-size: 12px; font-weight: 200;" fill="rgb(50, 49, 63)" stroke="none" stroke-width="1px">-5</text><text x="24.166666666666664" y="0" dx="0em" dy="0.95em" style="text-anchor: middle; visibility: inherit; font-family: &quot;Helvetica Neue&quot;, sans-serif; font-size: 12px; font-weight: 200;" fill="rgb(50, 49, 63)" stroke="none" stroke-width="1px">0</text><text x="48.33333333333333" y="0" dx="0em" dy="0.95em" style="text-anchor: middle; visibility: inherit; font-family: &quot;Helvetica Neue&quot;, sans-serif; font-size: 12px; font-weight: 200;" fill="rgb(50, 49, 63)" stroke="none" stroke-width="1px">5</text><text x="72.5" y="0" dx="0em" dy="0.95em" style="text-anchor: middle; visibility: inherit; font-family: &quot;Helvetica Neue&quot;, sans-serif; font-size: 12px; font-weight: 200;" fill="rgb(50, 49, 63)" stroke="none" stroke-width="1px">10</text><text x="96.66666666666666" y="0" dx="0em" dy="0.95em" style="text-anchor: middle; visibility: inherit; font-family: &quot;Helvetica Neue&quot;, sans-serif; font-size: 12px; font-weight: 200;" fill="rgb(50, 49, 63)" stroke="none" stroke-width="1px">15</text><text x="120.83333333333334" y="0" dx="0em" dy="0.95em" style="text-anchor: middle; visibility: inherit; font-family: &quot;Helvetica Neue&quot;, sans-serif; font-size: 12px; font-weight: 200;" fill="rgb(50, 49, 63)" stroke="none" stroke-width="1px">20</text><text x="145" y="0" dx="0em" dy="0.95em" style="text-anchor: middle; visibility: inherit; font-family: &quot;Helvetica Neue&quot;, sans-serif; font-size: 12px; font-weight: 200;" fill="rgb(50, 49, 63)" stroke="none" stroke-width="1px">25</text><text x="169.16666666666669" y="0" dx="0em" dy="0.95em" style="text-anchor: middle; visibility: inherit; font-family: &quot;Helvetica Neue&quot;, sans-serif; font-size: 12px; font-weight: 200;" fill="rgb(50, 49, 63)" stroke="none" stroke-width="1px">30</text><text x="193.33333333333331" y="0" dx="0em" dy="0.95em" style="text-anchor: middle; visibility: inherit; font-family: &quot;Helvetica Neue&quot;, sans-serif; font-size: 12px; font-weight: 200;" fill="rgb(50, 49, 63)" stroke="none" stroke-width="1px">35</text><text x="217.5" y="0" dx="0em" dy="0.95em" style="text-anchor: middle; visibility: inherit; font-family: &quot;Helvetica Neue&quot;, sans-serif; font-size: 12px; font-weight: 200;" fill="rgb(50, 49, 63)" stroke="none" stroke-width="1px">40</text><text x="241.66666666666669" y="0" dx="0em" dy="0.95em" style="text-anchor: middle; visibility: inherit; font-family: &quot;Helvetica Neue&quot;, sans-serif; font-size: 12px; font-weight: 200;" fill="rgb(50, 49, 63)" stroke="none" stroke-width="1px">45</text><text x="265.8333333333333" y="0" dx="0em" dy="0.95em" style="text-anchor: middle; visibility: inherit; font-family: &quot;Helvetica Neue&quot;, sans-serif; font-size: 12px; font-weight: 200;" fill="rgb(50, 49, 63)" stroke="none" stroke-width="1px">50</text><text x="290" y="0" dx="0em" dy="0.95em" style="text-anchor: middle; visibility: hidden; font-family: &quot;Helvetica Neue&quot;, sans-serif; font-size: 12px; font-weight: 200;" fill="rgb(50, 49, 63)" stroke="none" stroke-width="1px">55</text></g><line x1="0" y1="0" x2="290" y2="0" fill="rgb(0, 0, 0)" stroke="rgb(204, 204, 204)" stroke-width="1px"></line></g></g></g></g></svg>